# xmcd
#
# Track frame offsets:
#	150
#	24678
#	46399
#	67856
#	109324
#	124734
#	139861
#	165737
#	187565
#	218200
#	237009
#
# Disc length: 3357 seconds
#
# Revision: 1
# Processed by: cddbd v1.5.1PL0 Copyright (c) Steve Scherf et al.
# Submitted via: CDex 1.50Beta5
#
DISCID=920d1b0b
DTITLE=diverse system - Diverse Style from "B" 3rd Style -NORMAL-
DYEAR=1900
DGENRE=
TTITLE0=Y-ItoO as H=S=S/Salamander beat Crush Mix -invisible adversary mix-
TTITLE1=ATM/ACID BOMB -MINIMALIFE MIX-
TTITLE2=Is-m/life goes on (Rhythm break remix)
TTITLE3=EarBreaker/Turn the music (Revival edit)
TTITLE4=K-SHI with Rin/-eyes of clear blue- (feat. Rin)
TTITLE5=hammer/MIGHTY GUY -after 23:00-
TTITLE6=BLACKHEART/R4
TTITLE7=SLK/The SAFARI (KSD-edit)
TTITLE8=TsK(仮)/Absolute Trance Style
TTITLE9=NACCXle/GIVE ME A SIGN (odekake mix)
TTITLE10=PARAOKA/REAL 210
EXTD=
EXTT0=
EXTT1=
EXTT2=
EXTT3=
EXTT4=
EXTT5=
EXTT6=
EXTT7=
EXTT8=
EXTT9=
EXTT10=
PLAYORDER=
